# xmcd
#
# Track frame offsets:
#	150
#	15454
#	34898
#	52640
#	68771
#	87635
#	109264
#	116521
#	131353
#	148395
#	163178
#
# Disc length: 2356 seconds
#
# Revision: 0
# Processed by: cddbd v1.5.2PL0 Copyright (c) Steve Scherf et al.
# Submitted via: audiograbber 1.83.01
#
DISCID=9509320b
DTITLE=Ben Harper - White Lies for Dark Times
DYEAR=2009
DGENRE=Blues-Rock
TTITLE0=Number with no name
TTITLE1=Up to you now 
TTITLE2=Shimmer and shine 
TTITLE3=Lay there and hate me 
TTITLE4=Why must you always dress in black
TTITLE5=Skin thin
TTITLE6=Fly one time
TTITLE7=Keep it together (so I can fall apart)
TTITLE8=Boots like these 
TTITLE9=The word suicide
TTITLE10=Faithfully Remain
EXTD=
EXTT0=
EXTT1=
EXTT2=
EXTT3=
EXTT4=
EXTT5=
EXTT6=
EXTT7=
EXTT8=
EXTT9=
EXTT10=
PLAYORDER=
